<svg xmlns="http://www.w3.org/2000/svg" width="34" height="34" viewBox="0 0 34 34">
  <defs>
    <style>
      .cls-1 {
        fill: #4a76a8;
        fill-rule: evenodd;
      }
    </style>
  </defs>
  <path id="Forma_1" data-name="Forma 1" class="cls-1" d="M1406,41a17,17,0,1,0,17,17A17,17,0,0,0,1406,41Zm8.62,18.838a32.668,32.668,0,0,1,2.35,2.356,6.584,6.584,0,0,1,.83,1.208,0.863,0.863,0,0,1-.53,1.35h-3.48a2.7,2.7,0,0,1-2.22-.9c-0.48-.49-0.93-1.013-1.39-1.52a3.229,3.229,0,0,0-.63-0.558,0.729,0.729,0,0,0-1.16.281,3.651,3.651,0,0,0-.36,1.626,0.927,0.927,0,0,1-1.11,1.074,8.949,8.949,0,0,1-4.99-1.072,10.938,10.938,0,0,1-3.35-3.139,41.773,41.773,0,0,1-4.41-7.87c-0.28-.62-0.08-0.952.61-0.965,1.13-.022,2.27-0.019,3.4,0a1,1,0,0,1,.95.709,21.628,21.628,0,0,0,2.31,4.282,3.587,3.587,0,0,0,.88.96,0.529,0.529,0,0,0,.9-0.265,3.078,3.078,0,0,0,.2-0.9,13.258,13.258,0,0,0-.06-3.147,1.3,1.3,0,0,0-1.12-1.2c-0.33-.063-0.28-0.186-0.12-0.376a1.259,1.259,0,0,1,1.07-.532h3.94a0.932,0.932,0,0,1,.84,1.025v4.373a1.282,1.282,0,0,0,.56,1.117,0.755,0.755,0,0,0,.78-0.385,13.377,13.377,0,0,0,2.22-3.406c0.27-.539.5-1.1,0.72-1.657a0.841,0.841,0,0,1,.89-0.61l3.79,0a1.857,1.857,0,0,1,.33.02,0.658,0.658,0,0,1,.62,1.007,9.446,9.446,0,0,1-1.51,2.611c-0.63.875-1.3,1.72-1.93,2.6A1.187,1.187,0,0,0,1414.62,59.839Z" transform="translate(-1389 -41)"/>
</svg>
