<svg
 xmlns="http://www.w3.org/2000/svg"
 xmlns:xlink="http://www.w3.org/1999/xlink"
 width="41px" height="43px">
<path fill-rule="evenodd"  fill="rgb(255, 255, 255)"
 d="M40.360,39.166 L30.256,28.522 C32.854,25.394 34.277,21.458 34.277,17.361 C34.277,7.789 26.588,0.000 17.137,0.000 C7.685,0.000 -0.004,7.789 -0.004,17.361 C-0.004,26.934 7.685,34.722 17.137,34.722 C20.685,34.722 24.066,33.638 26.957,31.581 L37.138,42.305 C37.563,42.752 38.135,42.999 38.749,42.999 C39.329,42.999 39.880,42.775 40.298,42.368 C41.186,41.502 41.215,40.066 40.360,39.166 ZM17.137,4.529 C24.123,4.529 29.806,10.285 29.806,17.361 C29.806,24.437 24.123,30.193 17.137,30.193 C10.151,30.193 4.467,24.437 4.467,17.361 C4.467,10.285 10.151,4.529 17.137,4.529 Z"/>
</svg>
